<svg xmlns="http://www.w3.org/2000/svg" viewBox="0 0 200 265"><defs><style>.cls-1{isolation:isolate;}.cls-2{fill:#f1f2f2;}.cls-3{fill:#e6e7e8;}.cls-4{fill:#91cdf0;}.cls-10,.cls-11,.cls-12,.cls-20,.cls-21,.cls-5{fill:none;}.cls-5{stroke:#27aae1;stroke-width:4.31px;}.cls-20,.cls-21,.cls-5{stroke-miterlimit:10;}.cls-6{fill:#27aae1;}.cls-15,.cls-7{fill:#231f20;}.cls-7{opacity:0.2;mix-blend-mode:multiply;}.cls-8{fill:#fff;}.cls-9{fill:#e83d32;}.cls-10{stroke:#e83d32;}.cls-10,.cls-11,.cls-12,.cls-21{stroke-linecap:round;}.cls-10,.cls-11,.cls-12{stroke-linejoin:round;}.cls-10,.cls-12{stroke-width:1.49px;}.cls-11,.cls-12{stroke:#fff;}.cls-11{stroke-width:0.99px;}.cls-13{fill:#fedc00;}.cls-14{fill:#f79421;}.cls-16{fill:#939598;}.cls-17{fill:#8b5e3c;}.cls-18{fill:#a97c50;}.cls-19{fill:#af2027;}.cls-20{stroke:#af2027;stroke-width:4px;}.cls-21{stroke:#39b54a;stroke-width:3px;}.cls-22{fill:#ee2a7b;}.cls-23{fill:#39b54a;}</style></defs><title>Artboard 1 copy 8</title><g class="cls-1"><g id="Layer_1" data-name="Layer 1"><circle class="cls-2" cx="100.38" cy="121.13" r="88.16"/><circle class="cls-3" cx="100.38" cy="121.13" r="67.79"/><ellipse class="cls-4" cx="94.09" cy="248.38" rx="63.25" ry="6.41"/><ellipse class="cls-4" cx="51.35" cy="258.64" rx="15.39" ry="2.14"/><ellipse class="cls-4" cx="74.86" cy="238.98" rx="25.21" ry="3.85"/><path class="cls-5" d="M135.13,121.46c3,.67,55.36,12.64,6.11,42.84"/><path class="cls-5" d="M122.18,125.36c-2.85,1.27-10.93,38.95-68.2,28.76"/><path class="cls-6" d="M117.53,177.58c.18-23.77-4.6-42.71-16-63.44,11.4-4.57,22.71-8.72,34.36-12.6,11.89,25.43,16.64,48.78,15.63,76.83C140.17,178.33,128.83,178.07,117.53,177.58Z"/><path class="cls-7" d="M113.83,144.57s22-.24,30.8-17.24l-24.11,1.77L112,138.3Z"/><polygon class="cls-8" points="138.67 119.24 164.03 91.31 153.36 49.24 149.76 35.94 151.81 7.05 142.2 4.57 122.79 18.47 104.23 39.73 64.75 30.01 44.76 25.11 60.13 56.7 56.92 87.96 72.64 111.33 107.4 127.33 138.67 119.24"/><path class="cls-9" d="M47.83,103.86C45.84,123.27,60,124.73,60,124.73c-.84-.69-2.49-5.32-2.49-5.32,8,11.8,22.57,17.48,22.57,17.48-1.27-1.28-5.37-8.74-5.37-8.74,5.45,8,18,11.06,18,11.06-1.63-.76-6.1-7.93-6.1-7.93a36.19,36.19,0,0,0,16.35,8,19.07,19.07,0,0,0,4.36.37l1.64-.08h0l-.06.09a34.33,34.33,0,0,1,7.89-.63c-10.07-.36-6,.51-.5-1.25,4-1.29,6.91-1.48,10-3.72,6.44-4.65,13-9,19.65-13.32,7.33-4.68,11.11-8.76,17.2-14.23l4.15-2.73c1.76-3.15,3.62-6.17,5.69-9.17.34-.49.71-.93,1.08-1.39a87.93,87.93,0,0,0-.28-10.36c1.47,1.56,2.23,4.74,2.62,7.8a25,25,0,0,1,3.33-2.59c0-.06,0-.11,0-.16a9.32,9.32,0,0,1,.59-1.86l-.36.44c-.38-8.55-4.53-17.15-4.53-17.15,3.82,1.89,6.94,11.56,6.94,11.56,3.12-18-21.79-32.45-21.79-32.45C166,49.25,177,57,177,57c-7-10.24-24.16-15.33-24.16-15.33,5.78-29.79.69-39.57.69-39.57-22.5.19-39.46,21.69-39.46,21.69a32.62,32.62,0,0,0-27.6-.1c5.45-.9,11.57,1.9,11.57,1.9a106.07,106.07,0,0,0-20.79,3.67c-3.05-3-14.56-12-35.88-2.85,0,0,2.74,17.37,10.32,24.9-5.54,5.76-5.11,8.58-5.11,8.58l6.25-4.34L55.54,72.9a30,30,0,0,0-10.66,14c1.2-1.59,6.6-3.24,6.6-3.24C41.35,96.08,44,109,44,109A8.18,8.18,0,0,1,47.83,103.86ZM126,25s10.68-14.82,22.1-14.79c0,0,1.51,15.2-3.49,23.72C144.65,34,135.45,27.18,126,25ZM49.28,30.33c12.52-3.69,23.21,2.81,21.61,4.19C67.17,37.71,59.3,50.4,59.3,50.4,51.7,46.63,49.28,30.33,49.28,30.33Z"/><path class="cls-9" d="M176.15,69.49s9.62,23.18,2.32,37.82c0,0-.25-11.15-1.86-15.7,0,0,2.71,20.2-22.3,36a34.77,34.77,0,0,0,8.35-15s-27.11,32.2-58.92,26.85l43.92-33.15s13.43-30.54,13.94-30.83S176.15,69.49,176.15,69.49Z"/><path class="cls-8" d="M84.68,76.39C82.1,64.63,86.24,45.89,96,43.75s21.35,13.14,23.93,24.89S115.39,89.84,105.67,92,87.27,88.15,84.68,76.39Z"/><path class="cls-10" d="M93.32,79s15.44,20.37,17.91-5.44"/><path class="cls-11" d="M66.76,82.71S73.44,97.28,80,82"/><path class="cls-4" d="M106.86,96.5s-8.41,16.9.54,17S106.86,96.5,106.86,96.5Z"/><path class="cls-4" d="M79.17,178.37s-12.45,25,.8,25.23S79.17,178.37,79.17,178.37Z"/><path class="cls-12" d="M100.53,126.44s3.88-14.76,13.56-2.34"/><path class="cls-8" d="M86.3,92.65c8.54.23-6.53,11.84-6.53,11.84s-5.84-3.74-8.65-7.95S77.76,92.42,86.3,92.65Z"/><path class="cls-9" d="M82.88,52.56s14.83,20.79,53.05,16.68l-13.5-28.3-17.72-4.65-13,1.4L81,50"/><ellipse class="cls-13" cx="51.99" cy="221.1" rx="14.74" ry="8.71" transform="translate(-172.99 189.89) rotate(-68.87)"/><path class="cls-13" d="M46.39,230.27c-7.63,16.91,17.24,21.55,28.52,15.59,6-3.31,13.59-11.94,10.61-19.23-3-8-12.6-6-17.24-1.33-2.65,2.65-5.31,7.3-9,8.62-4,1-6.63-2.65-9-5.3-.33-.66-.33,0-.66,0"/><path class="cls-14" d="M46.76,229.95c-4.56,1.34-9.65,1.07-12.33-3.48-1.61-2.68-1.34-9.38-5.9-9.92-4.83-.27-4.29,6.43-3.22,9.11,1.77,4.44,6,8.7,10.68,9.91,3.94,1,7.13-.47,10.5-2.4a1.84,1.84,0,0,0,.69-1.92C47,229.82,46.76,229.95,46.76,229.95Z"/><ellipse class="cls-15" cx="45.48" cy="223.66" rx="0.75" ry="2.67"/><path class="cls-13" d="M53.5,207.85c2.17-4.93-3.84-5.32-3.84-5.32,1.11,1.19,1.39,4.6,1.46,6.26l-.21.1c-.8-2.57-3.86-9.77-11.27-2.73,0,0,6.86,1.08,9.79,3.5l-.3.17c-2.49-.6-7.14-1-9.54,3.6A30.91,30.91,0,0,1,48,210.57"/><path class="cls-4" d="M51.35,247.5s15.25-8.38,25.23.88l-7.44,2-7.44-1Z"/><path class="cls-4" d="M9.05,242.42c2.82,1.18,18.2,1.6,18.2,1.6s-11.12-10.63-13.94-11.81a5.53,5.53,0,0,0-4.26,10.2Z"/><path class="cls-4" d="M15.19,261.5c2.15-.58,11.19-7.18,11.19-7.18s-11.14-1.16-13.29-.59a4,4,0,1,0,2.09,7.77Z"/><path class="cls-16" d="M34.43,66.7c-3.56,1.22-5.2-.42-7.08-3.43.93,4.61-4.78,7.83-9,6a4,4,0,0,1-2.21-2.17c-4.9,2-12.18,1-10.1-2.38,1.59-2.67,7-2.25,9.56-2-2.11-.75-4.42-2-5.56-4-1.7-2.84-1-8.91,3.4-7.76,2.62.56,4.19,4.27,5,6.47C19.21,49.21,31.51,50,29,59a4.89,4.89,0,0,1,5.67-3.91C41.66,56,39.86,64.87,34.43,66.7Z"/><ellipse class="cls-17" cx="135.94" cy="193.99" rx="29.5" ry="3.84"/><rect class="cls-17" x="106.44" y="186.32" width="58.94" height="7.91"/><ellipse class="cls-18" cx="135.94" cy="186.32" rx="29.5" ry="3.84"/><path class="cls-19" d="M117.53,175.61h34.08a0,0,0,0,1,0,0v5.79a4.43,4.43,0,0,1-4.43,4.43H122a4.43,4.43,0,0,1-4.43-4.43v-5.79A0,0,0,0,1,117.53,175.61Z"/><path class="cls-19" d="M134.66,244s-3.78,5.57-12.44,5.3l-.29,1.77s11.08,1.22,14.59-4l-.35,4.05,3.71-.28-.93-7.37Z"/><rect class="cls-17" x="145.57" y="193.99" width="6.26" height="53.22"/><rect class="cls-17" x="115.68" y="193.99" width="6.26" height="53.22"/><path class="cls-20" d="M140.33,181.78c-23.41,12.78-13.41,43.78-3.46,63.1"/><path class="cls-19" d="M112,242s-3.78,5.57-12.44,5.3l-.29,1.77s11.08,1.22,14.59-4l-.35,4.05,3.71-.28-.93-7.37Z"/><path class="cls-20" d="M139.88,179.39S80.7,169.89,114.21,243"/><path class="cls-4" d="M70.22,109s-8.31,16.71.54,16.84S70.22,109,70.22,109Z"/><path class="cls-4" d="M101.09,160.13s-8.31,16.71.54,16.84S101.09,160.13,101.09,160.13Z"/><path class="cls-9" d="M55.11,153.49c3-.89,11.36-10.78,6.34-12-3.88-.81-6.67,7.69-7.62,10.34l-.38-.14a25.53,25.53,0,0,0-5.12-2.12c-2.8-.76-16.76-2.93-18.32.7-2.32,4.81,15.42,3.81,18.29,3.66-4.65.37-12.3,4.35-12.77,9.49,4.34,3.12,11.84-6.66,14.2-9.66-1,2.12-4.86,9.29-.1,8.36,2.47-.47,3.67-4.06,4.33-6.14"/><path class="cls-9" d="M138.25,160c2.66-1.58,8.45-13.19,3.28-13.18-4,.14-4.64,9.06-4.92,11.86l-.4,0a25.53,25.53,0,0,0-5.48-.83c-2.9-.07-17,1.17-17.62,5.07-1.1,5.23,15.89,0,18.64-.83-4.42,1.47-10.9,7.17-10.13,12.28,5,2,9.9-9.3,11.47-12.78-.48,2.3-2.49,10.18,1.91,8.14,2.29-1.05,2.59-4.82,2.73-7"/><path class="cls-21" d="M27.25,128.65s36.08,20.94,38.32,52.07"/><path class="cls-9" d="M32.42,124.73c4.44-15.72-7.63-18.28-10-2.12-15.72-4.44-18.28,7.63-2.12,10-4.44,15.72,7.63,18.28,10,2.12C46,139.14,48.59,127.06,32.42,124.73Z"/><path class="cls-22" d="M32.42,124.73c4.44-15.72-7.63-18.28-10-2.12-15.72-4.44-18.28,7.63-2.12,10-4.44,15.72,7.63,18.28,10,2.12C46,139.14,48.59,127.06,32.42,124.73Z"/><path class="cls-22" d="M33.43,130.15c14.25-8,7.53-18.33-5.55-8.55-8-14.25-18.33-7.53-8.55,5.55-14.25,8-7.53,18.33,5.55,8.55C32.86,150,43.21,143.23,33.43,130.15Z"/><circle class="cls-13" cx="26.38" cy="128.65" r="7.41" transform="translate(-85.96 60.62) rotate(-47.21)"/><path class="cls-23" d="M47.24,143.68s-1.76-12.82,11.67-13.48c0,0,1.55,12.09-10.76,13.48"/></g></g></svg>